<?xml version="1.0" encoding="UTF-8" standalone="no"?>
<!-- Created with Inkscape (http://www.inkscape.org/) -->

<svg
   width="83.961113mm"
   height="151.57494mm"
   viewBox="0 0 83.961113 151.57494"
   version="1.1"
   id="svg1"
   xml:space="preserve"
   xmlns="http://www.w3.org/2000/svg"
   xmlns:svg="http://www.w3.org/2000/svg"><defs
     id="defs1" /><g
     id="layer1"
     transform="translate(-62.794442,-72.645224)"><path
       d="m 140.61722,73.811061 c -2.64583,1.340556 -4.16278,2.54 -5.18583,4.233334 l -0.67028,1.058333 v -1.516944 c 0,-1.905 -0.49389,-2.892778 -1.51694,-2.892778 -1.27,0 -7.65528,3.386667 -10.12473,5.3975 -7.3025,5.961944 -11.64166,15.628055 -11.64166,26.035004 v 3.03389 l -1.41111,0.42333 c -2.25778,0.67028 -8.21973,3.77472 -10.618615,5.57389 -13.088055,9.59555 -21.448889,26.84639 -24.094722,49.67111 -0.564445,4.93889 -0.987778,6.31472 -4.974166,15.69861 -4.7625,11.28889 -7.584723,20.84917 -7.584723,25.54111 0,2.54 0.881945,6.38528 1.975556,8.64306 2.081389,4.19805 7.267222,7.90222 12.664722,9.03111 8.607778,1.79916 16.615833,-1.55222 20.955,-8.74889 2.610558,-4.37445 4.162778,-10.33639 3.245558,-12.52361 -0.70556,-1.65806 -2.786947,-2.2225 -3.633614,-0.98778 -0.176389,0.21167 -0.705555,1.72861 -1.199444,3.35139 -1.975556,6.42055 -4.515556,10.16 -7.972778,11.71222 -1.622778,0.74083 -2.363611,0.84667 -5.750278,0.81139 -4.868333,-0.0353 -7.3025,-0.84667 -9.736666,-3.28083 -4.092222,-4.05695 -3.633611,-10.33639 1.446388,-21.09611 3.069167,-6.45584 9.031112,-15.98084 13.299723,-21.20195 l 1.199444,-1.48167 h 25.576385 25.54112 v -1.44638 c 0,-1.69334 -1.16417,-2.99862 -3.98639,-4.40973 -1.16417,-0.59972 -1.86973,-1.23472 -2.18723,-2.01083 -0.635,-1.51694 -1.23472,-8.14917 -1.23472,-13.58194 v -4.33917 l 2.61056,-5.22111 c 6.56166,-13.29972 7.83166,-23.74195 3.95111,-32.59667 -0.21167,-0.45861 -0.14111,-0.59972 0.35278,-0.59972 1.27,0 4.19805,-1.65806 5.53861,-3.10445 1.09361,-1.27 1.30528,-1.72861 1.30528,-3.104441 0,-1.799167 -0.35278,-2.610556 -1.79917,-4.303889 -1.19945,-1.340555 -1.30528,-2.892778 -0.49389,-6.103055 0.49389,-1.905 0.49389,-2.187223 -0.0353,-3.210278 -0.3175,-0.635 -1.27,-1.869722 -2.11667,-2.751667 l -1.55222,-1.622777 1.79917,-3.457223 c 1.79917,-3.563055 2.18722,-5.573889 1.02306,-5.785555 -0.28223,-0.03528 -1.62278,0.493889 -2.96334,1.164166 z m -16.43944,88.264999 c 0,0.0706 -1.5875,0.10584 -3.52778,0.10584 h -3.56306 l 1.23473,-1.05834 c 0.635,-0.59972 1.44639,-1.65805 1.72861,-2.39889 0.42333,-1.09361 1.16416,-5.00944 1.34055,-7.23194 0.0353,-0.28222 2.50473,9.2075 2.78695,10.58333 z"
       id="path1"
       style="fill:#d8af92;fill-opacity:1;stroke:none;stroke-width:0.458611" /></g></svg>
